<svg xmlns="http://www.w3.org/2000/svg" viewBox="0 0 1000 1250" preserveAspectRatio="xMidYMid slice" role="img" aria-label="Brettljause mit Speck, Käse und Bauernbrot">
  <rect width="1000" height="1250" fill="#653f2e"/>
  <g opacity="0.4" fill="#563629"><rect x="0" y="200" width="1000" height="12"/><rect x="0" y="640" width="1000" height="12"/><rect x="0" y="1060" width="1000" height="12"/></g>
  <rect x="110" y="230" width="780" height="790" rx="40" fill="#ae7847"/>
  <rect x="140" y="260" width="720" height="730" rx="28" fill="#bf9263"/>
  <g><circle cx="330" cy="420" r="86" fill="#f2e9dd"/><circle cx="330" cy="420" r="60" fill="#e4d2ba"/></g>
  <g fill="#97613b"><rect x="480" y="352" width="330" height="60" rx="26"/><rect x="480" y="440" width="290" height="60" rx="26"/></g>
  <g fill="#faf6f1"><rect x="200" y="580" width="200" height="130" rx="14"/><rect x="230" y="610" width="200" height="130" rx="14"/></g>
  <g fill="#d2b48f"><circle cx="620" cy="640" r="66"/><circle cx="720" cy="690" r="52"/></g>
  <g fill="#4c7c52"><circle cx="300" cy="840" r="40"/><circle cx="370" cy="866" r="30"/><circle cx="238" cy="868" r="26"/></g>
  <g fill="#7a4c32"><rect x="500" y="800" width="260" height="110" rx="18"/><rect x="530" y="830" width="200" height="12" rx="6" fill="#563629"/></g>
</svg>
